# xmcd
#
# Track frame offsets:
#	150
#	15075
#	27362
#	41892
#	55685
#	69162
#	79580
#	87952
#	104805
#	116327
#	127337
#	135757
#	152897
#	168090
#	195410
#	205852
#	212537
#
# Disc length: 3062 seconds
#
# Revision: 1
# Processed by: cddbd v1.5.1PL2 Copyright (c) Steve Scherf et al.
# Submitted via: audiograbber 1.83.01
#
DISCID=d60bf411
DTITLE=Diverse - Paint your wagon - Western Movie Hits
DYEAR=1900
DGENRE=Country
TTITLE0=Once upon a time in the west
TTITLE1=Ghost Riders in the sky
TTITLE2=Theme from Big Country
TTITLE3=My name is Nobody
TTITLE4=Oklahoma Annie: Have you ever been lonely
TTITLE5=Canyon Passage: Ole buttermilk sky
TTITLE6=The Ballad of the Alamo
TTITLE7=The Electric Hoseman: Midnicgt Rider
TTITLE8=The Virginian
TTITLE9=Valley of Fire: On top of old Smokey
TTITLE10=The last of the Mohikans: I will find you
TTITLE11=Johnny Guitar
TTITLE12=Paint your Wagon: Wand'rin Star
TTITLE13=Young Guns II: Blaze of Glory
TTITLE14=Man of La Mancha: The impossible dream
TTITLE15=Badlands of Dakota: Man Namara's Band
TTITLE16=Dances with Wolfes
EXTD=
EXTT0=
EXTT1=
EXTT2=
EXTT3=
EXTT4=
EXTT5=
EXTT6=
EXTT7=
EXTT8=
EXTT9=
EXTT10=
EXTT11=
EXTT12=
EXTT13=
EXTT14=
EXTT15=
EXTT16=
PLAYORDER=
